# xmcd CD database file
#
# Track frame offsets:
#	150
#	19699
#	40103
#	56189
#	81606
#	100284
#	144007
#	169447
#	191650
#	210498
#
# Disc length: 2985 seconds
#
# Revision: 0
# Processed by: cddbd v1.5.2PL0 Copyright (c) Steve Scherf et al.
# Submitted via: CDex 1.70beta1
#
DISCID=8a0ba70a
DTITLE=Dave Stern and Friends - Wellness - Entspannen mit Natur und Musik
DYEAR=2004
DGENRE=New Age
TTITLE0=Singvögel beim Sonnenaufgang
TTITLE1=Erwachende Natur
TTITLE2=Morgenkonzert
TTITLE3=Sonnenaufgang
TTITLE4=Voices of the Forest
TTITLE5=Birds in the Sky
TTITLE6=Das Spiel der Wolken
TTITLE7=Am Fles der Stille
TTITLE8=Wassermeditation
TTITLE9=Singvögel
EXTD=YEAR: 2004
EXTT0=
EXTT1=
EXTT2=
EXTT3=
EXTT4=
EXTT5=
EXTT6=
EXTT7=
EXTT8=
EXTT9=
PLAYORDER=
